PathFileType	3	(X/Y/Z)	random_1__fused_aligned.trc
DataRate	CameraRate	NumFrames	NumMarkers	Units	OrigDataRate	OrigDataStartFrame	OrigNumFrames
100.0	100.0	7	19	mm	100.0	868	1870
Frame#	Time	pelvis			neck			head			hip_left			hip_right			knee_left			knee_right			ankle_left			ankle_right			heel_left			heel_right			toe_left			toe_right			shoulder_left			shoulder_right			elbow_left			elbow_right			wrist_left			wrist_right			
		X1	Y1	Z1	X2	Y2	Z2	X3	Y3	Z3	X4	Y4	Z4	X5	Y5	Z5	X6	Y6	Z6	X7	Y7	Z7	X8	Y8	Z8	X9	Y9	Z9	X10	Y10	Z10	X11	Y11	Z11	X12	Y12	Z12	X13	Y13	Z13	X14	Y14	Z14	X15	Y15	Z15	X16	Y16	Z16	X17	Y17	Z17	X18	Y18	Z18	X19	Y19	Z19	
868	8.67000	-136.854972	927.971987	-318.223652	-188.573782	1502.275434	-383.082825	-318.635590	1603.767958	-414.375900	-167.146652	930.500604	-247.103891	-106.563184	925.443361	-389.343403	-354.845695	528.789364	-189.226650	-268.674676	511.396650	-433.035363	-151.816594	196.468501	-38.988102	-166.949342	121.778316	-328.309659	-106.290176	163.966512	-17.557862	-134.357908	75.875102	-305.066044	-301.837785	90.473111	-85.189187	-333.379675	67.185638	-403.931513	-215.505062	1492.612078	-211.814674	-69.311006	1447.937084	-509.273442	-326.400039	1373.828878	26.254986	70.010317	1284.902453	-699.550783	-477.956668	1286.734651	245.746758	142.045007	1157.330319	-928.151870
869	8.68000	-136.606933	927.786009	-316.842634	-188.907736	1502.249626	-382.309422	-319.439875	1603.129780	-414.162232	-167.153304	930.322529	-245.817591	-106.060466	925.249481	-387.867669	-354.918971	528.501259	-187.878212	-269.137078	511.539563	-432.573181	-153.539104	195.308280	-36.688534	-167.603440	121.695899	-328.026683	-108.187298	162.599693	-15.101380	-135.022070	75.783442	-304.801274	-304.121454	89.939066	-83.258060	-334.030327	67.050159	-403.739051	-216.397524	1492.640516	-211.084329	-69.050725	1447.995132	-508.119232	-327.557569	1374.129236	27.437899	72.112366	1283.999032	-697.267776	-478.122350	1287.011121	247.707596	145.590068	1154.636014	-925.168326
870	8.69000	-136.358894	927.600032	-315.461616	-189.241689	1502.223817	-381.536019	-320.244159	1602.491602	-413.948563	-167.159956	930.144455	-244.531291	-105.557749	925.055601	-386.391934	-354.992247	528.213153	-186.529775	-269.599480	511.682477	-432.111000	-155.261613	194.148059	-34.388966	-168.257538	121.613481	-327.743706	-110.084419	161.232874	-12.644898	-135.686232	75.691783	-304.536503	-306.405122	89.405022	-81.326933	-334.680980	66.914680	-403.546590	-217.289987	1492.668954	-210.353984	-68.790443	1448.053180	-506.965023	-328.715098	1374.429594	28.620812	74.214415	1283.095611	-694.984769	-478.288032	1287.287592	249.668434	149.135129	1151.941710	-922.184782
871	8.70000	-136.110856	927.414054	-314.080597	-189.575643	1502.198009	-380.762616	-321.048444	1601.853424	-413.734895	-167.166609	929.966381	-243.244991	-105.055031	924.861721	-384.916199	-355.065523	527.925048	-185.181337	-270.061882	511.825391	-431.648818	-156.984123	192.987839	-32.089398	-168.911636	121.531064	-327.460730	-111.981541	159.866055	-10.188416	-136.350394	75.600124	-304.271733	-308.688790	88.870977	-79.395806	-335.331632	66.779202	-403.354128	-218.182449	1492.697392	-209.623639	-68.530162	1448.111227	-505.810814	-329.872627	1374.729952	29.803725	76.316464	1282.192189	-692.701762	-478.453714	1287.564062	251.629272	152.680191	1149.247406	-919.201238
872	8.71000	-135.862817	927.228076	-312.699579	-189.909596	1502.172200	-379.989214	-321.852729	1601.215246	-413.521226	-167.173261	929.788306	-241.958691	-104.552314	924.667841	-383.440465	-355.138799	527.636942	-183.832900	-270.524284	511.968304	-431.186637	-158.706633	191.827618	-29.789830	-169.565735	121.448646	-327.177753	-113.878663	158.499236	-7.731934	-137.014556	75.508465	-304.006962	-310.972458	88.336933	-77.464679	-335.982285	66.643723	-403.161666	-219.074912	1492.725830	-208.893294	-68.269880	1448.169275	-504.656604	-331.030157	1375.030311	30.986638	78.418514	1281.288768	-690.418755	-478.619396	1287.840532	253.590110	156.225252	1146.553102	-916.217694
873	8.72000	-135.614778	927.042099	-311.318561	-190.243550	1502.146392	-379.215811	-322.657013	1600.577068	-413.307558	-167.179914	929.610232	-240.672391	-104.049596	924.473961	-381.964730	-355.212074	527.348837	-182.484462	-270.986686	512.111218	-430.724455	-160.429143	190.667397	-27.490262	-170.219833	121.366229	-326.894777	-115.775784	157.132417	-5.275452	-137.678719	75.416806	-303.742192	-313.256126	87.802889	-75.533552	-336.632938	66.508244	-402.969205	-219.967374	1492.754268	-208.162949	-68.009599	1448.227323	-503.502395	-332.187686	1375.330669	32.169551	80.520563	1280.385347	-688.135747	-478.785078	1288.117002	255.550947	159.770313	1143.858797	-913.234150
874	8.73000	-135.366739	926.856121	-309.937543	-190.577503	1502.120583	-378.442408	-323.461298	1599.938891	-413.093889	-167.186566	929.432158	-239.386091	-103.546879	924.280082	-380.488996	-355.285350	527.060731	-181.136025	-271.449089	512.254132	-430.262274	-162.151652	189.507176	-25.190694	-170.873931	121.283812	-326.611800	-117.672906	155.765598	-2.818970	-138.342881	75.325147	-303.477422	-315.539794	87.268844	-73.602425	-337.283590	66.372765	-402.776743	-220.859837	1492.782706	-207.432604	-67.749317	1448.285370	-502.348186	-333.345216	1375.631027	33.352464	82.622612	1279.481925	-685.852740	-478.950760	1288.393472	257.511785	163.315374	1141.164493	-910.250606
